<svg xmlns="http://www.w3.org/2000/svg" xmlns:xlink="http://www.w3.org/1999/xlink" width="203.419" height="38.867" viewBox="0 0 203.419 38.867">
  <defs>
    <radialGradient id="radial-gradient" cx="0.341" cy="0.297" r="0.73" gradientTransform="translate(0.007)" gradientUnits="objectBoundingBox">
      <stop offset="0" stop-color="#fdcdb8"/>
      <stop offset="0.123" stop-color="#fd9d8e"/>
      <stop offset="0.402" stop-color="#fe2825"/>
      <stop offset="0.494" stop-color="#ff0001"/>
      <stop offset="0.509" stop-color="#fa0000"/>
      <stop offset="0.849" stop-color="#900000"/>
      <stop offset="1" stop-color="#600"/>
    </radialGradient>
  </defs>
  <g id="新ロゴ" transform="translate(-58.516 -412.746)">
    <g id="ロゴマーク">
      <path id="パス_12" data-name="パス 12" d="M102.365,413.374c-25.9-.739-39.781,17.393-43.849,33.86,15.725,7.587,38.111,4.441,49.584-2.776-8.882,2.4-27.012,4.625-35.523,0C75.721,431.693,85.158,416.7,102.365,413.374Z" fill="#0c105e"/>
      <path id="パス_13" data-name="パス 13" d="M109.766,431.137A11.287,11.287,0,1,1,98.48,419.853,11.287,11.287,0,0,1,109.766,431.137Z" fill="url(#radial-gradient)"/>
    </g>
    <g id="LANDHEART" transform="translate(0 -9)">
      <path id="パス_14" data-name="パス 14" d="M122.318,435.86c0,1.518-.088,2.4,1.5,2.4,5.471,0,5.162-3.212,6-3.212.094,0,.244.075.244.538,0,1.912-1.3,3.922-3.108,3.922-3.359,0-4.675-.1-5.777-.1-.684,0-1.611.1-2.826.1-.287,0-.417-.12-.417-.271,0-1.127,1.675.192,1.675-2.79V424.856c0-2.082-2.492-1.422-2.492-2.281,0-.218.243-.415.707-.415.882,0,2.157.1,3,.1,1.875,0,2.14-.1,2.49-.1.464,0,.578.03.578.319,0,.934-1.569.026-1.569,1.889Z" transform="translate(0 -0.022)" fill="#fff"/>
      <path id="パス_15" data-name="パス 15" d="M137.528,432.133c-.4,0-.709.028-.709-.218a2.61,2.61,0,0,1,.244-.911l1.7-4.335c.11-.272.2-.292.244-.292.11,0,.043,0,.177.2l1.8,4.429a2.513,2.513,0,0,1,.246.911c0,.246-.309.218-.708.218Zm3.683,1.325c.569,0,.681.244,1.408,2.157a4.56,4.56,0,0,1,.4,1.637c0,1.5-1.564,1.231-1.564,1.944,0,.341.289.29.685.29.638,0,1.454-.1,2.419-.1,1.46,0,2.053.1,2.85.1.593,0,.793.051.793-.365,0-.807-1.193.148-1.9-1.594l-5.953-15c-.287-.733-.33-.781-.528-.781-.29,0-.4.463-.552.859l-5.976,14.822c-.55,1.372-1.677,1.225-1.677,1.788,0,.323.356.271.661.271.639,0,1.282-.1,1.942-.1.708,0,1.368.1,2.078.1.46,0,1.136.173,1.136-.341,0-.662-2.374-.268-2.374-2.034a7.7,7.7,0,0,1,.463-1.936c.5-1.619.969-1.717,1.344-1.717Z" transform="translate(-0.785)" fill="#fff"/>
      <path id="パス_16" data-name="パス 16" d="M152.061,426.865c0-4.706-2.472-3.106-2.472-4.29a.372.372,0,0,1,.381-.415c.415,0,.813.1,1.232.1.569,0,1.148-.1,2.314-.1.7,0,.442.172.841.642l8.865,10.8c.285.343.548.634.683.634s.174-.29.174-.906v-8.155c0-2.232-2.693-1.789-2.693-2.6,0-.165.066-.415.356-.415.354,0,.987.1,2.516.1,1.389,0,2.159-.1,2.357-.1.42,0,.42.251.42.319,0,.739-1.875.149-1.875,2.717v13.746c0,.54,0,.741-.264.741a.65.65,0,0,1-.574-.345L153.715,426.6c-.152-.2-.284-.321-.394-.321-.132,0-.179.171-.179.392V435c0,4.706,2.825,3.037,2.825,4.191,0,.339-.55.316-.837.316-1.081,0-1.833-.1-2.6-.1-.708,0-1.3.1-1.9.1-.243,0-.681.126-.681-.29,0-.987,2.114-.544,2.114-3.044Z" transform="translate(-1.759 -0.022)" fill="#fff"/>
      <path id="パス_17" data-name="パス 17" d="M174.066,425.4c0-1.694.128-2.305,1.786-2.305,5.512,0,6.592,5.586,6.592,7.914,0,5.076-2.45,7.573-5.888,7.573-.862,0-2.489-.171-2.489-1.787Zm-2.716,11.566c0,2.2-1.762,1.269-1.762,2.2,0,.442.506.341.88.341.686,0,1.348-.1,2.03-.1.818,0,2.028.1,4.606.1,2.364,0,8.119-2.206,8.119-9.286,0-7.673-6.419-8.063-9.371-8.063-1.152,0-2.273.1-3.419.1-2.183,0-2.627-.1-3.047-.1a.423.423,0,0,0-.4.391c0,.907,2.36.1,2.36,2.6Z" transform="translate(-2.809 -0.022)" fill="#fff"/>
      <path id="パス_18" data-name="パス 18" d="M202.94,436.056c0,3.111,2.3,2.2,2.3,3.162,0,.313-.178.29-.466.29-.725,0-2.029-.1-2.931-.1-.794,0-1.651.1-2.777.1-.308,0-.446-.1-.446-.271,0-.853,1.611-.195,1.611-2.573v-4.407c0-1.029.072-1.3-.9-1.3h-5.888c-1.016,0-1.081.251-1.081,1.324v3.852c0,3.037,2.734,2.154,2.734,3.037,0,.147.045.341-.657.341-.911,0-1.633-.1-3.221-.1-.929,0-1.857.1-2.959.1-.262,0-.481-.052-.481-.365,0-.984,1.872-.1,1.872-3.138V425.076c0-2.666-2.493-1.59-2.493-2.526,0-.36.662-.391,1.083-.391.658,0,1.32.1,2.471.1,1.319,0,2.2-.1,2.843-.1.306,0,.505.127.505.368,0,.76-1.7.047-1.7,2.23v3.9c0,.665.087.974.55.974h6.55c.64,0,.771-.555.771-1.094v-3.457c0-2.692-2.424-1.812-2.424-2.526,0-.434.2-.391.507-.391.908,0,1.482.1,2.845.1,1.144,0,1.962-.1,2.909-.1.376,0,.468.073.468.3,0,.933-1.594-.125-1.594,2.281Z" transform="translate(-3.792 -0.022)" fill="#fff"/>
      <path id="パス_19" data-name="パス 19" d="M211.637,428.461c0,1.051,0,1.222.948,1.222h1.392c1.9,0,1.962-2.25,2.4-2.25.154,0,.4-.053.421.606l.151,4.362c.021.323.155,1.2-.376,1.2-.7,0-.088-2.6-2.384-2.6h-1.63c-1.013,0-.928.3-.928,1.719v3.135c0,1.518-.085,2.4,1.5,2.4,5.472,0,5.162-3.212,6-3.212.09,0,.243.075.243.538,0,1.912-1.3,3.922-3.108,3.922-3.357,0-4.674-.1-5.781-.1-.682,0-1.607.1-2.82.1-.288,0-.421-.12-.421-.271,0-1.127,1.675.192,1.675-2.79V424.981c0-2.208-2.487-1.428-2.487-2.407a.435.435,0,0,1,.484-.415c.9,0,2.488.1,5.863.1,1.567,0,3.088-.1,5.027-.1a.452.452,0,0,1,.439.468l.092,2.421c.02.325.133,1.134-.376,1.134-1.037,0,.683-2.871-3.572-2.871-2.665,0-2.759.023-2.759,1.717Z" transform="translate(-4.837 -0.022)" fill="#fff"/>
      <path id="パス_20" data-name="パス 20" d="M226.894,432.133c-.4,0-.706.028-.706-.218a2.474,2.474,0,0,1,.244-.911l1.7-4.335c.108-.272.2-.292.24-.292.109,0,.043,0,.172.2L230.354,431a2.44,2.44,0,0,1,.246.911c0,.246-.308.218-.707.218Zm3.684,1.325c.569,0,.682.244,1.411,2.157a4.573,4.573,0,0,1,.4,1.637c0,1.5-1.568,1.231-1.568,1.944,0,.341.29.29.686.29.639,0,1.456-.1,2.423-.1,1.461,0,2.054.1,2.852.1.592,0,.79.051.79-.365,0-.807-1.192.148-1.9-1.594l-5.954-15c-.288-.733-.335-.781-.529-.781-.286,0-.4.463-.55.859l-5.98,14.822c-.552,1.372-1.673,1.225-1.673,1.788,0,.323.349.271.662.271.636,0,1.28-.1,1.939-.1.7,0,1.365.1,2.073.1.463,0,1.145.173,1.145-.341,0-.662-2.383-.268-2.383-2.034a7.7,7.7,0,0,1,.463-1.936c.506-1.619.973-1.717,1.348-1.717Z" transform="translate(-5.625)" fill="#fff"/>
      <path id="パス_21" data-name="パス 21" d="M244.072,424.683c0-1.467.69-1.467,1.5-1.467,2.228,0,3.465,1.812,3.465,4.217,0,1.442-.131,2.812-3.485,2.812-.658,0-1.481,0-1.481-.618Zm-2.706,11.35c0,3.085-1.79,2.271-1.79,3.058,0,.492.465.417.706.417,1.1,0,2.206-.1,3.4-.1.924,0,1.518.1,1.892.1.509,0,.685-.148.685-.365,0-.883-2.186.121-2.186-2.5V432.4c0-.857-.127-1.026,1.039-1.026a1.785,1.785,0,0,1,2.01,1.295l1.851,3.876c.685,1.419,1.391,2.962,3.131,2.962.882,0,2.339-.536,2.339-1.3a.326.326,0,0,0-.332-.344c-.218,0-.441.147-.665.147a.8.8,0,0,1-.785-.39c-1.592-3.086-3.465-6.642-3.465-6.789,0-.239.638-.466,1.279-1.029a3.91,3.91,0,0,0,1.274-3.059c0-1.132-.438-4.587-5.271-4.587-1.476,0-2.974.1-4.452.1-1.389,0-1.566-.1-2.577-.1-.267,0-.49.127-.49.368,0,.884,2.409-.024,2.409,2.722Z" transform="translate(-6.598 -0.022)" fill="#fff"/>
      <path id="パス_22" data-name="パス 22" d="M260.573,424.927c0-1.169-.219-1.295-1.127-1.295H257.6c-2.493,0-1.831,3.205-2.823,3.205-.463,0-.327-.533-.288-.854l.353-3.234c.025-.247.025-.591.355-.591,2.049,0,3.531.1,6.75.1s4.7-.1,6.751-.1c.328,0,.328.344.346.591l.244,2.249c.044.3.289,1.254-.288,1.254-.88,0-.172-2.719-2.71-2.621h-1.875c-.9,0-1.125.126-1.125,1.295v11.078c0,3.013,2.82,2.3,2.82,2.99,0,.588-.438.514-1.079.514-.877,0-1.609-.1-3.084-.1s-2.209.1-3.088.1c-.394,0-.77.023-.77-.514,0-.956,2.49.223,2.49-2.695Z" transform="translate(-7.436 -0.022)" fill="#fff"/>
    </g>
    <g id="株式会社ランドハート" transform="translate(-18 -103.342)">
      <path id="パス_47" data-name="パス 47" d="M143.676,544.861a9.039,9.039,0,0,1-.992,1.895l-1.5-.874c.181-.223.255-.329.422-.567H139.77v1.232a13.043,13.043,0,0,0,2.059,2.534l-.946,1.354a7.68,7.68,0,0,1-1.082-1.683h-.031v6.414h-1.425v-6.942h-.032a13.6,13.6,0,0,1-1.74,3.787l-.69-1.9a14.522,14.522,0,0,0,2.252-4.8h-1.952v-1.487h2.161v-2.707h1.425v2.707H141.6v1.487h.027a12.307,12.307,0,0,0,1.369-3.7l1.56.226c-.09.423-.21.884-.406,1.546h1.156v-2.267h1.49v2.267h3.169v1.473H146.8v2.1h3.467v1.485H147.28a11.351,11.351,0,0,0,3.228,3.937l-.779,1.65a11.378,11.378,0,0,1-2.9-3.877H146.8v5.006h-1.49v-4.959h-.03a12.439,12.439,0,0,1-3.361,3.722l-.977-1.364a12.064,12.064,0,0,0,3.946-4.114H141.6v-1.485h3.706v-2.1Z" transform="translate(0 -0.36)" fill="#fff"/>
      <path id="パス_48" data-name="パス 48" d="M182.932,543.308h1.622v1.5h-4.5a22.011,22.011,0,0,0,1.173,6.516c.177.42.839,1.769,1.365,1.769.542,0,.781-1.726.84-2.248l1.381.776c-.211,1.158-.615,3.364-1.968,3.364-1.456,0-2.447-1.723-2.809-2.417-1.3-2.534-1.409-5.3-1.5-7.761h-7.974v-1.5h7.915c-.032-.8-.075-2.147-.091-2.385h1.592c0,.762,0,1.317.017,2.385h2.718v-.029a14.144,14.144,0,0,0-2.24-1.323l.9-1.17a15.172,15.172,0,0,1,2.419,1.425Zm-12.374,9.628c.378-.037.541-.062.751-.078.36-.062,2.043-.27,2.435-.332v-4.353h-2.929v-1.484h7.236v1.484h-2.762v4.161c1.727-.253,2.643-.441,3.228-.558v1.412c-2.434.526-5.9,1.051-7.7,1.274Z" transform="translate(-19.341 -0.173)" fill="#fff"/>
      <path id="パス_49" data-name="パス 49" d="M208.162,545.047v-.028a14.672,14.672,0,0,0,3.094-2.824,16.384,16.384,0,0,0,3.123,2.824v.028Zm9.477,9.238a21.6,21.6,0,0,0-3.469-4.327l-1.279.781a17.252,17.252,0,0,1,1.774,2.147c-2.312.138-3.033.151-6.127.224.466-.851.871-1.786,1.607-3.452h7.822V548.2H204.437v1.456H208.3a23.167,23.167,0,0,1-1.443,3.486c-.718.012-1.845.027-2.163.027l.227,1.562c2.281,0,2.794-.042,10.662-.573.388.621.435.678.616,1.028Zm-10.394-7.81h7.976v-.858a26.533,26.533,0,0,0,2.418,1.34l.96-1.5c-2.931-1.142-5.378-2.824-6.487-4.563h-1.727a13.925,13.925,0,0,1-6.5,4.624l.885,1.444a16.056,16.056,0,0,0,2.476-1.295Z" transform="translate(-37.929 -0.231)" fill="#fff"/>
      <path id="パス_50" data-name="パス 50" d="M241.941,555.155H240.41v-5.8a10.454,10.454,0,0,1-1.816,1.4l-.675-1.528A9.637,9.637,0,0,0,242,544.836h-3.876v-1.472h2.285v-2.341h1.531v2.341h1.772v1.472a13.52,13.52,0,0,1-1.517,2.54,10.633,10.633,0,0,0,2.1,1.849l-.734,1.422a12.4,12.4,0,0,1-1.623-1.572Zm5.135-14.132h1.578v4.248h3.213v1.608h-3.213v6.171h3.558v1.6h-8.92v-1.6h3.784v-6.171h-3.135v-1.608h3.135Z" transform="translate(-56.912 -0.306)" fill="#fff"/>
      <path id="パス_51" data-name="パス 51" d="M292.682,544H280.235v-2.481h12.447Zm.116,1.839c-.17,6.633-3.664,9.243-11.792,9.275v-2.484c6.5-.014,8.613-1.954,9.129-4.374H280.1v-2.418Z" transform="translate(-80.443 -0.581)" fill="#fff"/>
      <path id="パス_52" data-name="パス 52" d="M319.581,544.452l-7.341-.314v-2.515l7.341.317Zm-6.826,8.044c7.113-.281,9.562-2.908,10.062-9.142h2.32c-.5,7.937-3.953,11.5-12.382,11.753Z" transform="translate(-98.367 -0.64)" fill="#fff"/>
      <path id="パス_53" data-name="パス 53" d="M353.492,542.6h-2.114v-2.128h2.114Zm2.75,0h-2.121v-2.128h2.121Zm.811,3.754v2.527l-9.317-1.364v7.235H345.42V540.491h2.317V545Z" transform="translate(-116.874 0)" fill="#fff"/>
      <path id="パス_54" data-name="パス 54" d="M378.083,541.91c-.088,8.459-1.232,11.148-5.224,13.422v-2.943c2.161-1.577,2.807-3.53,2.908-10.479Zm5.12,0c.1,6.949.746,8.9,2.908,10.479v2.943c-3.976-2.274-5.137-4.963-5.223-13.422Z" transform="translate(-132.179 -0.8)" fill="#fff"/>
      <path id="パス_55" data-name="パス 55" d="M415.7,555.341H403.795v-2.608H415.7Z" transform="translate(-149.434 -6.837)" fill="#fff"/>
      <path id="パス_56" data-name="パス 56" d="M446.956,546.377V548.9l-9.316-1.364v7.235h-2.315V540.511h2.315v4.513Z" transform="translate(-167.021 -0.02)" fill="#fff"/>
    </g>
  </g>
</svg>
