<svg xmlns="http://www.w3.org/2000/svg" width="27.97" height="44.752" viewBox="0 0 27.97 44.752">
  <g id="ビルのアイコン" transform="translate(-2.823 -226.517)">
    <path id="パス_13" data-name="パス 13" d="M96,0V44.752h11.188V37.76h5.594v6.993H123.97V0Zm7.692,28.436H99.5V22.842h4.2Zm0-9.79H99.5V13.052h4.2Zm0-9.79H99.5V3.263h4.2Zm8.391,19.579h-4.2V22.842h4.2Zm0-9.79h-4.2V13.052h4.2Zm0-9.79h-4.2V3.263h4.2Zm8.391,19.579h-4.2V22.842h4.2Zm0-9.79h-4.2V13.052h4.2Zm0-9.79h-4.2V3.263h4.2Z" transform="translate(-93.177 226.517)" fill="#fff"/>
  </g>
</svg>
